# xmcd
#
# Track frame offsets:
#	150
#	13686
#	26515
#	43166
#	60836
#	76021
#
# Disc length: 1238 seconds
#
# Revision: 0
# Processed by: cddbd v1.5.1PL0 Copyright (c) Steve Scherf et al.
# Submitted via: audiograbber 1.80
#
DISCID=3804d406
DTITLE=X-OS - DEMO
DYEAR=1900
DGENRE=
TTITLE0=I Don't Want My MTV
TTITLE1=The South's Gona Do It Again
TTITLE2=Roosters Blues
TTITLE3=Honky Tonk Avenue
TTITLE4=Kill The Monkey
TTITLE5=Just Like A Woman
EXTD=
EXTT0=
EXTT1=
EXTT2=
EXTT3=
EXTT4=
EXTT5=
PLAYORDER=
